<svg width="249" height="356" viewBox="0 0 249 356" fill="none" xmlns="http://www.w3.org/2000/svg">
<path d="M124.301 13.6345C118.931 12.4845 103.851 7.08448 96.9006 6.06448C91.6206 5.33448 85.6506 5.11449 81.3506 5.58449C78.0806 5.96449 72.5407 7.39448 70.0107 8.53448C66.3507 10.1945 49.5806 19.4345 42.7106 23.3145C38.9006 25.5245 34.7107 28.5145 32.3207 30.8945C27.8807 35.3845 20.8507 45.2945 17.7007 50.9145C13.7507 58.1245 9.76067 66.9945 5.65067 77.1545C4.21067 80.8345 2.81065 85.6645 2.76065 88.2045C2.74065 90.1045 3.48066 96.6745 4.11066 98.7945C4.63066 100.474 6.25066 103.854 7.83066 106.354C9.84066 109.474 13.4707 113.295 16.4407 115.645C18.8107 117.485 24.3007 121.764 27.4207 124.214" stroke="black" stroke-width="5" stroke-linecap="round" stroke-linejoin="round"/>
<path d="M128.801 9.38449H127.611C130.971 7.24449 144.661 3.21449 151.291 2.69449C159.721 2.07449 171.861 2.9945 181.451 4.6245C188.791 5.9445 196.361 9.18449 207.101 14.8045C217.021 20.2245 225.051 25.1145 231.091 30.4945C233.411 32.5845 237.701 37.5245 239.401 39.9645C240.631 41.7445 243.221 46.8345 244.071 49.4645C245.901 55.2145 246.391 66.3345 245.851 72.3645C245.571 75.3445 244.001 82.0845 243.321 84.2245C241.701 89.2345 235.191 98.5245 229.431 104.344C219.241 114.584 202.301 125.865 201.701 126.305L203.541 130.464C202.471 131.844 198.271 133.895 195.001 134.865C188.221 136.835 177.601 138.124 165.991 139.264C141.101 141.544 129.871 141.894 123.721 142.654C122.641 142.804 121.551 142.944 120.471 143.094" stroke="black" stroke-width="5" stroke-linecap="round" stroke-linejoin="round"/>
<path d="M18.2306 122.684C18.2506 122.824 18.1807 123.694 18.3007 124.104C19.2707 126.954 22.0406 129.174 27.6706 132.444C32.0706 134.964 36.7707 137.454 39.7707 138.354C41.1207 138.744 48.5306 140.294 51.8406 141.094C53.8906 141.614 56.9707 143.874 58.9307 146.404C60.9807 149.114 63.8307 155.444 64.9407 158.124C65.3707 159.074 66.4806 161.014 67.2206 162.234" stroke="black" stroke-width="5" stroke-linecap="round" stroke-linejoin="round"/>
<path d="M126.011 16.3145C125.621 16.2145 125.011 16.5645 123.731 17.7345C121.121 20.1745 118.201 24.6645 118.201 27.5345C118.241 30.8045 120.051 33.6445 121.171 33.9945C122.101 34.2445 124.261 34.0845 126.291 33.6145C127.121 33.4245 131.071 32.2845 132.491 31.8645" stroke="black" stroke-width="5" stroke-linecap="round" stroke-linejoin="round"/>
<path d="M135.931 14.2745L135.501 17.8845C139.151 18.3945 143.761 18.3045 145.501 18.6445C147.821 19.1245 151.581 21.7545 151.961 23.1845C152.381 24.9545 151.521 27.9145 150.191 30.0845C147.271 34.7545 139.821 42.0345 136.851 44.6345C135.311 45.9645 132.871 47.6545 131.251 48.5345C130.831 48.7545 130.191 49.0545 129.351 49.4145" stroke="black" stroke-width="5" stroke-linecap="round" stroke-linejoin="round"/>
<path d="M127.351 34.6645V34.3145C124.291 36.8545 122.031 39.3245 120.421 42.2845C118.191 46.4945 116.161 51.1245 115.771 53.4645C115.581 54.7445 115.801 56.9845 116.241 57.7945C116.761 58.6845 118.771 60.0845 120.431 60.7645C122.781 61.6845 128.191 60.4945 131.191 59.4545C132.931 58.8345 137.091 56.5445 139.891 54.8145C142.361 53.2745 146.591 49.2945 148.191 47.7745" stroke="black" stroke-width="5" stroke-linecap="round" stroke-linejoin="round"/>
<path d="M148.691 35.1645C152.951 35.0445 157.671 36.1945 160.771 37.5645C162.921 38.5245 168.181 41.3045 169.131 42.2745C169.731 42.9345 170.251 44.7245 170.011 45.7745C169.471 47.9845 165.791 53.4445 163.991 55.5345C160.341 59.7345 154.491 63.8245 153.331 64.6245" stroke="black" stroke-width="5" stroke-linecap="round" stroke-linejoin="round"/>
<path d="M139.371 66.5145C138.891 67.5645 140.411 72.6145 142.051 74.3645C142.781 75.0845 144.121 75.8145 145.161 75.9745C148.421 76.3945 155.171 75.3145 158.041 74.1945C160.841 73.0545 166.901 69.3845 169.311 67.5145C171.591 65.7145 176.421 60.3945 177.591 58.3245C177.961 57.6545 179.001 54.7245 179.601 53.0045" stroke="black" stroke-width="5" stroke-linecap="round" stroke-linejoin="round"/>
<path d="M175.061 41.1945C175.181 41.4345 181.961 38.8645 184.791 37.7745C187.921 36.5645 191.421 36.1745 192.421 37.1745C192.701 37.4645 193.081 37.9745 193.551 38.6945C193.681 38.8945 193.881 39.2245 194.151 39.6945" stroke="black" stroke-width="5" stroke-linecap="round" stroke-linejoin="round"/>
<path d="M160.201 3.00449C159.851 6.48449 160.751 9.63449 162.741 12.0745C165.241 14.9545 169.601 18.0745 172.101 18.8645C174.721 19.6245 180.811 20.7045 185.211 21.2445C191.401 22.0145 196.241 23.1945 199.041 24.6345C200.881 25.6245 202.531 26.6245 203.131 27.3045C204.401 28.8045 205.921 31.5245 206.771 33.7345C206.981 34.3145 207.811 37.5245 208.311 39.4445" stroke="black" stroke-width="5" stroke-linecap="round" stroke-linejoin="round"/>
<path d="M193.211 37.9545L193.011 37.9745C192.521 39.9645 192.681 43.3345 194.151 47.0545C195.481 50.3345 198.981 54.9345 200.731 55.4545C202.041 55.7845 204.931 55.5045 206.571 54.8345C212.391 52.3245 216.321 46.4645 217.361 44.2945C217.621 43.7545 218.121 42.6345 218.881 40.9445" stroke="black" stroke-width="5" stroke-linecap="round" stroke-linejoin="round"/>
<path d="M225.461 29.9245H226.211C227.981 32.1245 229.431 34.3045 230.031 38.5045C230.241 40.1245 230.481 46.9545 230.341 49.5545C230.151 52.4645 228.621 56.9845 227.001 58.8245C224.681 61.3745 215.121 66.4645 211.931 68.1345C210.141 69.0445 206.861 70.5145 204.871 71.3045C204.291 71.5245 203.491 71.8145 202.481 72.1445" stroke="black" stroke-width="5" stroke-linecap="round" stroke-linejoin="round"/>
<path d="M200.231 56.6945C197.691 58.9345 194.631 62.5445 192.681 65.4545C190.241 69.1245 188.131 73.2445 188.391 74.0145C189.051 75.2645 193.771 77.8845 196.041 78.1845C198.901 78.5045 206.151 79.1345 210.271 79.4845C213.381 79.7445 216.921 79.7045 218.881 79.6745" stroke="black" stroke-width="5" stroke-linecap="round" stroke-linejoin="round"/>
<path d="M227.101 60.8845C230.011 65.3345 232.411 69.7945 232.831 72.2045C233.461 76.2245 232.741 81.6445 231.721 83.4745C230.301 85.8645 226.351 88.1445 220.831 91.0145C216.831 93.0745 207.411 97.8845 206.821 98.1545C203.381 99.7545 197.661 100.834 195.491 100.754C192.681 100.614 186.481 98.8345 183.631 96.9845C181.171 95.3445 177.231 90.8545 176.041 89.1945C174.681 87.2145 172.791 84.4745 172.271 83.7145" stroke="black" stroke-width="5" stroke-linecap="round" stroke-linejoin="round"/>
<path d="M159.711 70.0045L159.661 69.8545C158.981 70.2745 156.611 73.5645 155.921 75.9545C155.301 78.2345 154.801 83.5545 154.981 86.3345C155.211 89.3745 156.051 92.5045 157.521 95.6645C159.111 98.7045 162.471 102.845 165.181 104.235C166.281 104.785 167.321 105.044 168.311 104.994C168.851 104.954 169.921 104.695 171.521 104.205" stroke="black" stroke-width="5" stroke-linecap="round" stroke-linejoin="round"/>
<path d="M186.731 95.3245C188.581 97.4845 189.621 99.8745 189.601 102.544C189.521 105.234 189.101 108.164 188.481 109.424C187.421 111.444 182.381 113.644 178.251 114.324C174.341 114.924 155.401 113.874 153.731 113.384C152.341 112.964 150.871 112.044 148.941 110.484" stroke="black" stroke-width="5" stroke-linecap="round" stroke-linejoin="round"/>
<path d="M154.471 96.3245C151.031 97.7945 147.441 99.6045 145.571 101.044C143.721 102.514 139.941 106.774 139.331 108.204C138.251 110.804 139.041 117.164 139.801 118.814C140.601 120.434 142.171 122.434 143.461 123.414C145.011 124.554 150.361 125.824 154.381 126.224C163.331 127.034 186.581 123.624 190.461 122.894C191.551 122.694 192.651 122.494 193.751 122.294" stroke="black" stroke-width="5" stroke-linecap="round" stroke-linejoin="round"/>
<path d="M128.591 58.9845L128.251 58.8645L126.831 59.1145C125.951 60.6145 124.581 67.3845 125.031 70.9745C125.261 72.5345 127.801 75.5445 131.401 79.4545C133.931 82.1745 139.071 87.3745 139.691 88.5845C140.221 89.7345 137.871 93.2245 135.591 95.0445C135.031 95.4845 129.911 98.8445 128.531 99.7345C128.221 99.9345 127.911 100.135 127.611 100.325" stroke="black" stroke-width="5" stroke-linecap="round" stroke-linejoin="round"/>
<path d="M110.221 67.0745L109.961 67.3445C109.811 68.3245 113.411 75.3245 114.021 76.7445C114.921 78.8445 117.631 86.6945 117.581 89.6445C117.521 91.2645 113.881 94.9845 111.811 96.9645C110.781 98.0645 109.511 100.444 109.091 102.144C108.431 105.074 109.761 111.594 111.151 113.274C112.681 115.024 118.121 116.744 122.301 116.944C128.921 117.214 134.091 116.414 136.621 115.754C137.541 115.514 138.471 115.274 139.391 115.044" stroke="black" stroke-width="5" stroke-linecap="round" stroke-linejoin="round"/>
<path d="M141.131 141.494H141.261C140.851 138.684 139.341 134.334 137.661 131.474C136.821 130.124 135.241 129.014 133.451 128.504C133.031 128.394 127.631 129.024 121.821 129.324C120.201 129.394 116.721 129.554 114.861 129.634C114.151 129.654 113.441 129.684 112.721 129.714" stroke="black" stroke-width="5" stroke-linecap="round" stroke-linejoin="round"/>
<path d="M115.871 115.764C113.391 116.214 108.731 119.264 105.011 120.384C102.951 121.004 100.961 122.404 99.3706 125.504C97.8806 128.454 95.9106 133.594 96.2906 135.204C96.5606 136.214 98.6807 138.264 100.581 139.104C102.491 139.914 108.551 139.934 108.901 139.974C108.711 141.514 103.481 151.444 103.251 152.314C103.121 152.844 102.911 154.044 102.641 155.914" stroke="black" stroke-width="5" stroke-linecap="round" stroke-linejoin="round"/>
<path d="M122.761 139.494L122.651 139.384C122.401 139.754 121.791 141.204 121.621 141.434C121.471 141.634 118.181 145.114 117.261 146.244C114.181 150.064 112.541 158.824 112.501 159.044C112.451 159.394 112.381 159.994 112.301 160.844" stroke="black" stroke-width="5" stroke-linecap="round" stroke-linejoin="round"/>
<path d="M116.811 50.7845L117.061 50.7345C116.771 50.4145 115.751 49.8245 114.811 49.6645C113.201 49.3845 107.131 49.6345 104.791 49.8945C102.201 50.1845 98.8407 51.1845 97.2307 52.4445C95.9407 53.5145 94.0606 57.7545 93.7106 60.3245C93.4606 62.4845 94.3707 68.6145 95.8307 71.2545C96.1207 71.7845 96.7607 72.7445 97.7407 74.1445C98.1307 74.6945 98.5106 75.2445 98.9006 75.7845" stroke="black" stroke-width="5" stroke-linecap="round" stroke-linejoin="round"/>
<path d="M104.861 84.9345L105.071 84.2945C104.041 84.9545 98.4007 87.5545 96.3907 88.0745C94.3507 88.5745 89.4107 88.9445 86.7207 88.6745C83.8507 88.3545 79.4107 86.8045 78.8307 85.5345C78.4507 84.5745 77.0407 68.4845 77.1007 65.9245C77.2107 61.7745 77.8007 57.2045 78.7507 54.9945C79.7707 52.7345 83.1407 48.3845 85.8507 45.9545C89.0607 43.1245 91.2107 41.9345 94.7407 41.1545C98.2307 40.4245 101.771 39.8245 102.351 39.7445C102.601 39.7145 102.951 39.6845 103.411 39.6445" stroke="black" stroke-width="5" stroke-linecap="round" stroke-linejoin="round"/>
<path d="M116.721 28.8345C115.241 28.5345 114.281 28.4145 112.811 28.3945C109.601 28.3745 103.021 28.3445 99.6407 28.3445C94.9107 28.3345 93.6407 28.5945 92.9807 29.2045C92.8207 29.3545 92.6007 29.5445 92.3107 29.7745" stroke="black" stroke-width="5" stroke-linecap="round" stroke-linejoin="round"/>
<path d="M92.2707 40.9545C89.5607 41.6545 87.8906 41.9045 85.8406 41.8245C83.8406 41.7245 82.2306 41.2945 80.5906 40.4345C79.7506 39.9545 78.7506 38.5145 78.4706 37.3645C77.7506 34.0545 78.9007 28.1145 80.0807 25.8145C81.1907 23.7745 85.0506 20.3345 86.9606 19.4545C89.8306 18.1745 97.5206 17.1245 98.6306 16.9845C99.2206 16.9045 99.8007 16.8345 100.391 16.7545" stroke="black" stroke-width="5" stroke-linecap="round" stroke-linejoin="round"/>
<path d="M70.7907 12.1245C70.3607 12.0445 69.2207 11.8545 68.8607 12.0145C67.6407 12.6245 64.7807 16.7245 62.6007 20.6945C60.7207 24.2145 59.9407 30.0945 60.7007 31.6645C60.9507 32.1345 61.3307 32.7545 61.8607 33.5245C61.9907 33.7045 62.1207 33.8645 62.2407 33.9845" stroke="black" stroke-width="5" stroke-linecap="round" stroke-linejoin="round"/>
<path d="M47.7407 19.1445L47.6107 19.3945C46.7007 22.5445 46.7306 35.3945 47.5906 38.5045C48.4506 41.4545 51.5306 47.1145 53.3406 48.2845C55.0706 49.3545 58.4606 50.7645 59.9606 51.0345C60.5606 51.1345 64.4607 51.2845 65.5107 51.4845C65.5607 52.8245 65.6807 55.4545 65.6107 56.0145C65.5007 56.9145 64.8107 59.4945 64.4407 61.7345C64.2907 62.6445 64.1407 63.5645 63.9907 64.4745" stroke="black" stroke-width="5" stroke-linecap="round" stroke-linejoin="round"/>
<path d="M74.8307 69.2345C74.7407 71.1545 72.5006 74.8645 70.4706 76.3445C68.9506 77.4145 62.8307 78.8445 60.4807 78.6745C52.2907 77.9345 47.2006 73.3145 45.4106 71.1645C45.0806 70.7545 44.6507 70.2545 44.1307 69.6645" stroke="black" stroke-width="5" stroke-linecap="round" stroke-linejoin="round"/>
<path d="M42.0907 58.7745C42.0307 58.7745 41.4207 58.7845 41.1507 58.7945C39.6806 58.8445 35.7307 60.7945 33.6707 63.2645C32.7307 64.4545 31.2307 67.2745 30.7707 68.8245C30.3907 70.2245 30.3007 74.4145 30.5907 75.7445C31.1207 77.8545 35.5106 82.6245 38.2106 84.5445C41.4406 86.7845 45.6507 88.9545 49.5607 90.4345C51.4007 91.0845 54.1307 91.7145 55.7007 91.7145C56.5207 91.7045 60.1207 90.9745 61.9407 90.6345" stroke="black" stroke-width="5" stroke-linecap="round" stroke-linejoin="round"/>
<path d="M42.6006 36.1545L42.8006 35.5545C42.6906 35.3945 38.3906 38.9045 35.7406 41.7645C31.7706 46.0945 24.0006 59.2145 22.9406 61.4645C22.7006 61.9745 22.1606 63.1845 21.3306 65.1145" stroke="black" stroke-width="5" stroke-linecap="round" stroke-linejoin="round"/>
<path d="M11.7607 70.7245C11.7507 70.8445 11.7307 70.9245 11.7207 70.9845C11.6907 71.1645 11.6607 71.4445 11.6507 71.8045C11.4507 76.9545 12.3507 81.8145 14.2807 84.2245C15.8207 86.0645 20.1307 87.6745 21.8307 87.2545C23.0307 86.9345 24.0607 86.4945 24.8907 85.9245C25.3107 85.6245 25.9006 85.0245 26.6506 84.1245" stroke="black" stroke-width="5" stroke-linecap="round" stroke-linejoin="round"/>
<path d="M8.36069 98.2845L8.02069 98.2445C9.14069 98.9145 10.2307 99.4045 11.7807 99.8745C14.5607 100.694 22.3407 102.234 23.8407 102.364C26.1007 102.514 28.1607 101.804 32.8007 99.5945C36.6907 97.7845 39.8407 96.5745 41.4207 96.6945C42.3707 96.7645 43.1207 97.0045 43.6607 97.3945C44.0007 97.6445 44.5307 98.2645 45.2707 99.2645" stroke="black" stroke-width="5" stroke-linecap="round" stroke-linejoin="round"/>
<path d="M53.2307 90.8445C53.4407 91.1545 54.4907 92.7845 55.3307 94.0945C57.5707 97.5745 58.5007 101.684 58.3207 104.714C58.1507 106.924 56.0206 109.395 54.4106 110.225C51.9206 111.465 46.4406 112.315 42.2806 112.535C40.8406 112.615 30.1506 112.815 29.2106 113.335L29.7106 113.725" stroke="black" stroke-width="5" stroke-linecap="round" stroke-linejoin="round"/>
<path d="M24.7307 122.904L24.4407 122.695L24.6006 122.165C26.5306 122.165 41.6006 124.824 45.9706 124.774C47.4706 124.734 49.2506 124.375 49.9706 123.855C50.2006 123.675 50.8407 123.144 51.8707 122.274" stroke="black" stroke-width="5" stroke-linecap="round" stroke-linejoin="round"/>
<path d="M62.9706 88.6745C65.7506 88.5945 68.5607 89.4845 71.5807 91.4345C73.0807 92.4645 75.2207 95.1745 77.6807 98.9345C78.6207 100.364 79.2907 101.005 80.2707 101.355C83.4407 102.395 86.7507 102.545 87.3707 102.115C87.4507 102.055 87.6207 101.944 87.8907 101.774" stroke="black" stroke-width="5" stroke-linecap="round" stroke-linejoin="round"/>
<path d="M105.371 103.894L105.791 104.114C105.581 104.224 104.811 104.494 103.881 104.754C100.911 105.614 97.2706 107.194 93.8506 109.144C91.2406 110.654 85.9707 114.544 84.5607 115.234C81.7907 116.564 77.4507 116.604 75.2407 116.014C73.6507 115.564 72.4507 115.054 70.8107 114.134C69.6607 113.454 68.8807 112.474 68.0707 110.784C67.7907 110.164 67.5006 109.544 67.2206 108.914" stroke="black" stroke-width="5" stroke-linecap="round" stroke-linejoin="round"/>
<path d="M56.8007 114.184V113.894C56.8407 114.214 57.1706 116.314 57.3506 117.134C57.7506 118.894 60.3706 125.664 61.2906 127.164C63.8806 131.294 70.7006 137.054 73.0406 138.034C73.7106 138.284 75.3007 138.134 76.0207 137.754C76.5907 137.434 81.3607 133.164 81.8607 133.184C83.0007 133.484 84.1707 134.254 84.8807 135.364C85.5007 136.354 87.4506 146.294 87.5406 146.714C87.6406 147.184 87.8407 148.034 88.1407 149.274" stroke="black" stroke-width="5" stroke-linecap="round" stroke-linejoin="round"/>
<path d="M44.6807 139.534C45.8207 138.124 48.0307 136.854 52.1807 136.874C57.3607 137.004 59.6806 137.244 62.7206 139.064C64.0706 139.904 67.9507 143.244 69.0507 144.724C70.2107 146.534 72.9506 150.424 76.2906 152.384C76.9706 152.774 77.6407 153.174 78.3207 153.574" stroke="black" stroke-width="5" stroke-linecap="round" stroke-linejoin="round"/>
<path d="M33.8107 134.365C33.7807 134.485 33.8407 134.505 33.8007 134.545C32.9907 135.375 31.8707 136.734 30.9407 138.094C29.8607 139.734 29.6707 144.375 30.9307 147.295C32.1507 149.995 34.9907 153.764 37.0007 155.624C39.0907 157.494 42.0107 159.095 45.7707 160.605C46.8907 161.065 49.0007 161.895 49.9807 162.285" stroke="black" stroke-width="5" stroke-linecap="round" stroke-linejoin="round"/>
<path d="M157.171 145.074L157.211 144.644C157.991 144.314 158.501 144.204 159.101 144.384C160.311 144.794 161.601 146.014 162.241 147.594C163.281 150.244 163.141 154.254 162.541 155.544C161.771 157.074 160.611 158.444 158.781 159.974C158.301 160.374 157.671 160.904 156.911 161.544" stroke="black" stroke-width="5" stroke-linecap="round" stroke-linejoin="round"/>
<path d="M43.7707 204.814C43.4307 201.094 44.3907 197.154 45.7607 194.474C48.1407 189.944 49.3006 188.664 51.7106 186.944C54.0806 185.284 57.7506 183.254 60.2906 182.504C62.0406 182.004 67.5106 181.395 69.2906 181.895C71.2406 182.475 75.5606 186.044 77.4306 187.844C79.6806 190.064 81.7106 193.294 82.7806 196.814C83.5706 199.474 84.6706 205.824 84.6606 206.884C84.6606 207.054 84.6206 207.285 84.5506 207.585" stroke="black" stroke-width="5" stroke-linecap="round" stroke-linejoin="round"/>
<path d="M59.2106 168.325L58.7806 168.285C65.7406 169.175 74.9207 172.964 83.1807 175.344C81.5407 174.934 72.5907 171.895 71.0507 171.425C68.2807 170.585 61.7307 169.375 61.0707 169.055C60.3707 168.725 59.4106 168.085 58.1606 167.145C57.7706 166.845 57.1207 166.304 56.1907 165.524" stroke="black" stroke-width="5" stroke-linecap="round" stroke-linejoin="round"/>
<path d="M104.371 172.195C109.491 170.925 116.001 167.645 125.621 161.035C123.371 162.505 116.891 166.665 115.201 167.665C112.441 169.285 105.521 172.815 103.331 173.585C103.001 173.695 102.801 173.715 102.711 173.645" stroke="black" stroke-width="5" stroke-linecap="round" stroke-linejoin="round"/>
<path d="M44.6506 205.804C44.8506 205.924 45.0106 206.014 45.1506 206.074C47.8706 207.384 61.8906 210.894 65.9106 210.774C68.7206 210.664 81.9506 207.084 85.0306 205.464C85.6106 205.154 86.6306 204.544 88.0906 203.624" stroke="black" stroke-width="5" stroke-linecap="round" stroke-linejoin="round"/>
<path d="M57.7507 198.554L57.2307 197.534C60.2207 191.774 64.4207 189.704 65.2407 189.454C66.6507 189.634 68.3507 192.504 68.3707 193.764C68.2507 193.804 65.3906 192.404 65.2106 192.344C64.2406 192.064 62.8407 192.674 62.2007 193.394C60.8407 195.104 59.9907 197.964 59.9507 198.984C60.3007 198.644 64.0107 194.124 65.5707 192.944C66.6107 192.164 67.6007 191.894 68.3807 192.024L70.9006 197.844C68.5006 190.824 67.0407 189.544 66.4507 189.554C66.6007 189.804 70.2707 194.534 71.0607 197.164C71.1707 197.544 71.3107 198.224 71.4807 199.204L71.0306 198.634" stroke="black" stroke-width="5" stroke-linecap="round" stroke-linejoin="round"/>
<path d="M106.881 204.145L106.731 204.235C106.451 202.495 106.471 201.175 106.991 199.675C108.511 195.385 111.721 190.855 115.261 188.175C116.751 187.075 120.921 184.964 123.531 184.384C126.131 183.864 132.381 184.505 134.751 185.395C136.671 186.155 139.711 189.614 141.121 191.994C143.661 196.354 146.211 207.114 145.891 208.194C145.851 208.304 145.741 208.514 145.541 208.814" stroke="black" stroke-width="5" stroke-linecap="round" stroke-linejoin="round"/>
<path d="M108.431 206.704L108.341 206.584C111.781 209.004 116.221 210.734 120.881 211.784C124.381 212.534 131.371 213.074 134.891 212.564C137.381 212.184 143.891 208.274 144.941 207.784C145.371 207.594 146.271 207.234 147.631 206.704" stroke="black" stroke-width="5" stroke-linecap="round" stroke-linejoin="round"/>
<path d="M118.491 200.874C118.451 200.404 119.451 197.405 120.531 196.265C121.921 194.855 125.991 193.205 127.581 193.175C128.691 193.195 131.021 194.475 131.991 196.015C132.721 197.195 133.091 200.844 133.041 200.904C132.871 200.784 130.961 197.435 129.871 196.695C129.031 196.155 127.551 195.925 126.631 196.165C124.101 196.965 121.671 200.915 121.511 201.085C121.711 200.165 123.061 198.395 124.311 197.615C125.441 196.935 128.711 196.774 130.211 197.524C131.541 198.224 132.191 200.674 132.331 201.774C132.361 202.014 132.401 202.435 132.451 203.045" stroke="black" stroke-width="5" stroke-linecap="round" stroke-linejoin="round"/>
<path d="M34.0306 218.024C34.0906 218.204 34.0607 218.344 34.1207 218.444C35.7907 221.324 38.3206 223.394 42.2106 225.264C47.6306 227.794 56.6107 230.434 67.0807 232.544C78.8407 234.794 88.1707 236.064 95.9507 236.704C101.131 237.114 115.211 236.714 122.231 235.484C125.001 234.984 144.541 230.364 148.911 228.934C154.691 227.004 160.711 223.784 162.511 222.784C162.491 220.804 159.751 217.234 157.501 214.504C157.001 213.914 156.501 213.314 156.001 212.724C155.631 212.274 155.261 211.834 154.891 211.384" stroke="black" stroke-width="5" stroke-linecap="round" stroke-linejoin="round"/>
<path d="M46.4507 218.024L46.5306 218.234C45.7706 217.694 44.0407 216.464 43.6807 216.224C39.6707 213.574 29.7806 208.184 28.1006 207.704C26.9506 207.414 25.2907 207.724 24.5507 208.384C23.1807 209.734 23.7007 214.544 24.8807 217.054C26.0907 219.504 30.0406 224.174 32.9106 226.534C34.2406 227.614 37.4007 229.834 38.6907 230.564C39.7807 231.184 42.8906 232.624 44.2206 233.214C45.1906 233.654 47.1707 234.564 47.8907 234.904" stroke="black" stroke-width="5" stroke-linecap="round" stroke-linejoin="round"/>
<path d="M48.1906 162.654C47.6806 163.484 46.2106 165.864 45.9806 166.244C44.6706 168.284 40.0806 174.705 39.3006 176.355C37.7106 179.735 36.0006 185.725 35.6006 188.485C35.2606 190.925 35.1206 194.655 35.1106 199.765C35.0906 203.285 35.7306 206.894 36.0506 207.594C36.2206 207.934 36.3106 208.115 36.3206 208.135" stroke="black" stroke-width="5" stroke-linecap="round" stroke-linejoin="round"/>
<path d="M157.711 161.624H157.861C158.831 162.754 161.171 168.254 162.421 172.564C164.061 178.364 165.211 193.364 164.541 200.154C164.231 203.304 163.181 209.764 162.841 211.334C162.811 211.484 162.771 211.614 162.731 211.744" stroke="black" stroke-width="5" stroke-linecap="round" stroke-linejoin="round"/>
<path d="M46.0807 234.735C47.7307 235.525 48.8207 236.045 49.3707 236.325C55.1207 239.185 68.2007 243.364 74.4407 244.184C80.1307 244.914 127.081 245.385 133.861 244.585C139.091 243.935 147.831 240.775 150.521 239.795C151.271 239.525 153.551 238.675 155.101 238.105" stroke="black" stroke-width="5" stroke-linecap="round" stroke-linejoin="round"/>
<path d="M164.901 209.924L164.321 210.184C168.771 208.984 172.121 208.825 173.301 209.615C174.391 210.455 175.081 213.664 174.061 216.144C170.961 223.424 156.321 237.404 155.561 238.024C152.971 240.114 151.081 240.984 149.451 241.674" stroke="black" stroke-width="5" stroke-linecap="round" stroke-linejoin="round"/>
<path d="M70.0406 250.305C68.8306 253.585 68.3706 257.785 68.6906 262.335C68.9406 265.465 74.6507 282.465 75.5107 283.615C75.8507 284.065 76.5706 284.665 77.6706 285.415" stroke="black" stroke-width="5" stroke-linecap="round" stroke-linejoin="round"/>
<path d="M92.8807 254.384C93.5607 256.974 95.1907 263.464 95.4507 266.314C95.7007 269.304 95.0306 277.904 94.6506 280.004C94.0406 283.224 90.9507 290.934 90.3907 291.714C90.2407 291.924 90.0206 292.044 89.7206 292.074L89.5607 290.044" stroke="black" stroke-width="5" stroke-linecap="round" stroke-linejoin="round"/>
<path d="M76.6807 287.875C76.0607 288.135 75.7807 288.384 75.3507 289.334C73.4907 293.494 73.1207 296.235 74.3707 297.785C75.1807 298.715 77.5007 300.044 78.3907 300.014C79.4807 299.954 80.7807 299.174 81.7207 298.214C81.9507 298.404 83.2507 303.045 84.0307 307.125C84.2007 308.045 84.7607 310.705 84.9707 311.745" stroke="black" stroke-width="5" stroke-linecap="round" stroke-linejoin="round"/>
<path d="M90.9106 294.134C94.0206 299.664 95.8606 303.585 96.2906 307.805C96.3906 308.895 96.5306 317.425 96.5306 320.425C96.4906 323.575 95.7907 331.015 94.5107 334.445L93.5207 333.695" stroke="black" stroke-width="5" stroke-linecap="round" stroke-linejoin="round"/>
<path d="M81.4006 312.574C81.7706 313.954 82.8006 319.644 83.1006 322.834C83.1206 323.094 83.1707 323.395 83.2507 323.745L83.4407 323.175" stroke="black" stroke-width="5" stroke-linecap="round" stroke-linejoin="round"/>
<path d="M121.211 248.774L121.021 249.214C119.231 253.714 118.141 258.415 118.261 261.915C118.891 273.455 120.171 286.034 122.441 288.964C122.901 289.544 123.651 290.104 124.691 290.634C125.001 290.784 125.481 290.954 126.121 291.134" stroke="black" stroke-width="5" stroke-linecap="round" stroke-linejoin="round"/>
<path d="M137.221 250.494C137.261 250.424 137.351 250.424 137.481 250.494C137.611 250.554 137.971 250.774 138.551 251.154C139.321 254.924 139.391 267.774 138.441 273.434C137.841 276.894 134.561 290.824 133.951 293.324C133.591 294.794 133.131 296.715 133.081 296.875" stroke="black" stroke-width="5" stroke-linecap="round" stroke-linejoin="round"/>
<path d="M123.571 294.834L123.691 293.884L123.241 293.524C121.201 296.074 120.821 299.204 121.541 301.274L126.061 302.305C125.811 305.775 125.281 313.434 125.241 317.024C125.221 318.244 125.311 321.094 125.361 322.464" stroke="black" stroke-width="5" stroke-linecap="round" stroke-linejoin="round"/>
<path d="M134.421 293.685V293.305C135.391 294.855 137.331 299.125 137.851 300.975C139.121 305.695 138.391 319.595 137.031 325.745C136.011 330.185 134.511 335.425 133.881 336.545C133.721 336.835 133.341 337.364 132.761 338.154" stroke="black" stroke-width="5" stroke-linecap="round" stroke-linejoin="round"/>
<path d="M87.4907 337.935C84.7907 337.535 79.6207 337.085 76.8207 335.725C74.7707 334.725 71.5307 333.254 69.6907 333.214C68.6307 333.224 67.1007 333.804 66.4507 334.584C64.9707 336.404 64.1907 341.175 64.6307 342.565C65.2307 344.305 66.9107 347.085 68.1907 348.225C70.5107 350.235 75.3907 352.034 77.4407 352.384C79.6207 352.744 83.9306 352.405 87.4106 350.785C92.8306 347.935 99.2406 345.615 103.031 345.235C103.801 345.165 104.581 345.094 105.351 345.024" stroke="black" stroke-width="5" stroke-linecap="round" stroke-linejoin="round"/>
<path d="M100.461 345.675C103.441 346.435 105.421 346.994 106.921 347.514C108.261 347.964 113.371 349.565 118.221 350.315C119.961 350.575 137.841 349.775 140.221 349.005C144.741 347.505 147.881 345.585 148.311 344.415C148.451 343.925 148.361 342.465 147.891 341.915C146.071 339.865 139.191 337.265 138.661 336.935C138.231 336.685 137.561 336.115 136.631 335.245" stroke="black" stroke-width="5" stroke-linecap="round" stroke-linejoin="round"/>
<path d="M79.4206 335.014H79.2607C78.2807 334.274 78.0907 331.295 79.5007 329.625C80.3607 328.705 83.9006 329.245 87.5906 330.485C88.7106 330.885 89.8306 331.275 90.9606 331.675C91.3306 331.805 91.6206 331.914 91.8506 332.014" stroke="black" stroke-width="5" stroke-linecap="round" stroke-linejoin="round"/>
<path d="M87.7607 330.175L87.2707 330.524L87.6307 328.045C88.4607 327.585 93.1907 327.675 95.9807 328.795C96.2307 328.895 102.851 331.715 105.021 331.755C107.951 331.775 114.211 331.364 116.651 330.464C119.821 329.254 123.601 327.025 124.451 324.665C124.821 323.615 125.071 322.775 125.221 322.165C125.281 321.885 125.301 321.604 125.281 321.324" stroke="black" stroke-width="5" stroke-linecap="round" stroke-linejoin="round"/>
<path d="M81.9006 321.785C81.3606 321.955 80.8107 322.125 80.2607 322.295C77.5907 323.125 72.3906 324.965 68.6606 325.415C68.0806 325.475 60.8206 325.924 60.0306 325.954C56.1906 326.064 43.3706 321.855 40.8506 322.005C36.1706 322.405 33.4406 322.295 29.9706 321.795C28.6406 321.625 28.2406 322.125 27.9606 322.695C28.2006 323.885 28.7306 324.785 29.7906 325.475C32.6706 327.305 39.6107 328.594 41.2007 328.844C38.4407 328.544 34.3106 328.355 31.2906 328.065C28.3706 327.765 25.1507 326.615 22.7007 325.615" stroke="black" stroke-width="5" stroke-linecap="round" stroke-linejoin="round"/>
<path d="M29.8007 324.335C29.5307 324.305 23.1407 321.925 19.8107 321.485C17.8907 321.255 16.1407 322.704 15.7907 324.134C15.4907 325.494 16.3007 329.165 17.4607 330.825C18.6607 332.515 22.3707 334.615 24.7007 335.205C26.6607 335.665 29.8807 335.535 31.5007 335.375C31.8207 335.335 32.1807 335.285 32.5707 335.225" stroke="black" stroke-width="5" stroke-linecap="round" stroke-linejoin="round"/>
<path d="M16.2407 333.014C13.1807 330.674 9.6307 328.845 6.8607 329.725C6.0707 330.005 3.86072 332.325 3.28072 333.255C2.59072 334.435 2.2807 336.725 2.6707 337.925C3.1507 339.235 5.22071 342.025 6.49071 342.895C9.72071 345.025 22.6307 347.015 28.5307 347.335C33.7907 347.595 58.5207 343.855 58.9907 343.755C59.5007 343.655 60.7307 343.325 62.6807 342.795" stroke="black" stroke-width="5" stroke-linecap="round" stroke-linejoin="round"/>
</svg>
