<svg width="289" height="273" viewBox="0 0 289 273" fill="none" xmlns="http://www.w3.org/2000/svg">
<path d="M95.5898 53.1251C92.6698 53.0751 86.6098 53.0251 84.0898 53.5151C81.8398 53.9651 75.4798 56.3251 73.2998 57.8151C69.5098 60.4251 62.3998 69.2651 58.4398 76.4451C54.7898 83.1351 50.3698 95.6151 48.9298 101.655C47.9998 105.585 46.4498 120.435 46.5898 127.115C46.7398 133.155 49.2698 147.355 51.2698 153.375C53.4798 159.895 60.4998 172.375 64.2098 176.795C67.9698 181.235 76.7898 188.445 82.0398 190.835C85.1398 192.235 91.7598 194.155 95.0798 194.695C100.74 195.575 112.27 195.265 121.13 193.985C126.39 193.195 138.25 189.885 143.12 187.735C148.41 185.375 159.63 178.545 164.29 174.545C166.84 172.335 172.14 166.995 173.84 165.095C176.16 162.455 179.77 156.965 181.73 153.425C184.5 148.355 188.29 136.785 189.42 130.175C190.37 124.565 190.45 112.965 189.47 106.455C188.26 98.7251 183.32 87.1851 180.21 82.3151C177.34 77.8551 169.27 68.4851 164.62 64.9151C159.79 61.2351 150.3 56.2251 142.29 53.5251C136.66 51.6651 123.36 49.9151 117.44 49.7751C111.81 49.6551 100.07 50.6151 94.9498 51.6651C91.5498 52.3951 89.6698 53.2351 86.4998 55.3151C85.5298 55.9851 84.5498 56.6451 83.5798 57.3151" stroke="black" stroke-width="5" stroke-linecap="round" stroke-linejoin="round"/>
<path d="M22.8598 81.8351L22.9198 91.9951L24.3098 92.6751C28.4598 90.9951 27.4598 82.4551 27.0798 82.1451C26.8998 82.0151 26.4098 81.7851 25.6098 81.4551" stroke="black" stroke-width="5" stroke-linecap="round" stroke-linejoin="round"/>
<path d="M5.91983 102.605C3.86983 99.3551 2.88982 95.3951 3.00982 90.9951C3.17982 84.8951 3.56983 79.3251 4.16983 76.5151C4.92983 73.0751 6.86981 67.5351 8.13981 65.1951C9.44981 62.8751 13.7398 58.0251 15.9898 56.5451C19.8298 54.0851 29.5598 51.7851 33.2698 51.4651C35.0798 51.3251 38.2398 51.0851 39.5998 50.9851" stroke="black" stroke-width="5" stroke-linecap="round" stroke-linejoin="round"/>
<path d="M108.47 28.8051L107.91 29.5251C111.85 30.7551 116.2 31.4851 117.84 30.8351C119.74 30.0251 121.22 28.7951 121.24 27.9651C121.2 27.0651 120.74 26.0951 120.02 25.5151C117.83 23.9051 113.69 24.0651 111.81 24.6251C111.4 24.7451 110.84 24.9751 110.14 25.2951" stroke="black" stroke-width="5" stroke-linecap="round" stroke-linejoin="round"/>
<path d="M92.1398 28.0451C91.4998 26.8451 92.3298 23.4651 93.7998 19.8951C94.8398 17.4351 97.8798 12.2851 99.5598 10.3351C101.8 7.82508 106.22 5.08508 109.09 4.32508C111.82 3.63508 117.09 2.79509 120.06 3.04509C122.78 3.30509 128.23 5.72509 129.83 6.85509C131.81 8.27509 135.32 11.8151 136.13 12.6351" stroke="black" stroke-width="5" stroke-linecap="round" stroke-linejoin="round"/>
<path d="M40.7698 55.4051C43.3498 51.8951 46.0198 48.7951 48.5498 46.6851C51.4798 44.2751 64.5998 35.7851 69.8898 33.7951C73.8498 32.3351 84.6798 30.5651 88.4398 30.0751C91.6998 29.6551 97.4898 28.7351 99.2098 28.4551" stroke="black" stroke-width="5" stroke-linecap="round" stroke-linejoin="round"/>
<path d="M9.58982 100.725C9.15982 104.115 8.97981 107.475 9.24981 110.535C9.62981 114.525 14.7198 130.805 16.5698 135.845C19.2398 142.865 23.6198 152.535 26.9998 158.565C30.7398 165.135 38.8698 177.695 43.6398 183.895C49.6698 191.505 56.1598 198.795 61.8998 204.215C68.5698 210.365 82.2498 221.925 84.7398 223.885C89.2298 227.385 97.7098 231.875 98.3798 232.125C98.8598 232.295 99.9698 232.625 101.7 233.125" stroke="black" stroke-width="5" stroke-linecap="round" stroke-linejoin="round"/>
<path d="M132.37 12.3251H132.07C137.45 14.2851 148.64 21.2151 154.13 25.4151C157.2 27.7751 170.2 39.0551 173.86 42.6851C179.31 48.1251 190.19 60.7451 193.88 65.3551C200.48 73.8451 207.33 83.6951 210.76 89.3351C218.16 101.825 227.41 120.875 230.69 127.695C231.43 129.185 232.35 130.955 232.87 131.905" stroke="black" stroke-width="5" stroke-linecap="round" stroke-linejoin="round"/>
<path d="M100.78 235.415L100.99 235.055L100.9 234.755C98.8598 235.485 89.5898 243.475 82.4798 247.485C80.4398 248.625 80.1298 248.815 80.2898 248.805C80.8898 249.055 81.7798 244.075 79.2898 241.445C78.4898 240.675 77.0198 240.255 75.8898 240.545C73.4998 241.265 70.3398 245.445 69.3598 248.165C68.4298 250.985 68.4998 255.405 69.7598 256.785C70.6798 257.625 72.5598 256.825 74.0498 255.775C75.0598 256.125 79.1598 254.075 80.9498 252.825C83.7098 250.875 97.2998 240.135 100.68 237.435C97.5198 241.245 86.8998 251.115 81.1698 256.395C78.0898 259.215 72.7198 262.875 72.4498 263.205C71.3898 264.565 70.5398 267.015 70.6398 268.295C70.6998 268.785 72.0198 269.535 72.5498 269.605C74.2898 269.765 79.7098 266.755 81.7598 264.625C86.1798 259.955 102.61 235.275 102.95 234.715C95.5098 251.565 95.0298 259.625 95.0898 260.385L97.9198 258.535C97.9898 258.565 98.1798 264.545 99.3598 265.405C100.04 265.845 101.46 265.625 102.24 264.915C103.95 263.295 107.09 258.285 107.72 255.495C108.13 253.575 107.07 251.595 105.63 251.135C105.71 250.405 107.31 243.765 107.74 240.395C108.11 237.355 108.67 232.705 108.87 231.085" stroke="black" stroke-width="5" stroke-linecap="round" stroke-linejoin="round"/>
<path d="M107.7 232.365C111.07 230.935 117.21 228.315 119.99 227.115C127.23 223.925 141.77 217.295 148.99 213.745C156.89 209.655 170.91 201.235 173.29 199.655C178.27 196.325 188.47 187.825 193.17 183.405C200.68 176.215 215.51 159.265 219.18 154.145C221.29 151.155 225.42 144.535 227.33 141.415" stroke="black" stroke-width="5" stroke-linecap="round" stroke-linejoin="round"/>
<path d="M232.21 130.075L232.16 130.275C232.2 130.275 232.33 129.955 233.04 128.155C234.46 124.505 235.92 119.865 236.72 116.375C240.69 98.4751 243.74 92.6251 244.26 91.7451L240.8 94.0051C240.3 92.8351 243.92 88.8251 246.39 87.0151C252.18 82.8751 254.48 83.1751 255.22 83.6151C255.62 84.3651 255.73 84.9551 255.26 85.8651C253.88 88.5951 249.23 95.2651 249.13 95.4051C248.93 95.7251 240.52 122.825 238.86 127.745C239.73 126.555 251.47 113.445 257.17 107.195C262.9 101.175 275 88.8951 275.15 88.5551L269.54 88.3051C271.21 87.0451 276.64 86.9151 277.73 87.4751C278.32 87.8051 278.74 88.4551 278.87 89.1751C278.97 90.1751 276.17 93.8451 273.18 96.0551C271.57 97.2251 262.85 103.275 262.71 103.795C263.59 106.075 246.57 127.485 246.63 127.455C252.36 123.095 264.09 114.395 269.82 110.465C275.19 106.895 281.46 103.825 281.77 103.445C281.09 103.405 280.47 102.505 280.46 101.215C280.46 99.8451 282.78 97.7251 283.85 97.7251C284.35 97.7651 285.82 98.8151 286.07 99.6451C286.45 100.985 286.02 103.415 285.24 104.845C283.79 107.335 279.81 111.235 277.68 112.035C275.4 112.855 256.81 125.025 241.4 134.005C241.09 134.195 236.72 136.855 235.38 137.665C234.6 138.135 233.81 138.605 233.03 139.075" stroke="black" stroke-width="5" stroke-linecap="round" stroke-linejoin="round"/>
<path d="M81.2998 189.335L80.6398 190.425C80.4898 190.635 78.3598 190.335 77.2098 189.765C76.2898 189.305 72.9598 184.605 72.2098 182.715C70.5098 178.285 69.5398 165.715 69.8598 159.605C70.1498 154.305 73.2998 138.545 74.5598 134.595C76.6398 128.105 80.6698 118.845 83.8498 113.845C85.2098 111.715 89.3698 106.285 89.8798 105.725C92.1598 103.255 98.3298 98.5451 100.83 97.1051C110.77 91.4751 132.56 84.2151 139.3 82.9851C143.43 82.2551 149.37 81.8751 153.99 82.0251C157.89 82.1951 164.48 83.4051 168.44 84.8051C172.07 86.1251 178.25 89.5551 180.58 91.3251C182.32 92.6651 186.93 97.4151 187.32 98.4751C187.47 98.9051 187.61 99.7751 187.73 101.105" stroke="black" stroke-width="5" stroke-linecap="round" stroke-linejoin="round"/>
</svg>
